<svg xmlns="http://www.w3.org/2000/svg" viewBox="0 0 1050 600" width="1050" height="600"><defs></defs><rect width="1050" height="600" rx="26" fill="#142F7A"/><g transform="translate(245,246) scale(0.7169)"><rect x="123.2" y="9.3" width="159.1" height="118.2" rx="26.0" fill="none" stroke="#FFFFFF" stroke-width="6.6"/><g transform="translate(26.40,110.40)"><path d="M76.92 -23.04Q76.92 -12.24 69.48 -6.12Q62.04 0.0 48.6 0.0H6.72V-84.6H47.28Q60.239999999999995 -84.6 67.62 -78.84Q75.0 -73.08 75.0 -62.64Q75.0 -55.199999999999996 71.1 -50.22Q67.2 -45.239999999999995 60.72 -43.44Q68.16 -41.76 72.53999999999999 -36.06Q76.92 -30.36 76.92 -23.04ZM30.24 -51.0H42.12Q51.0 -51.0 51.0 -58.32Q51.0 -65.88 42.12 -65.88H30.24ZM52.8 -26.4Q52.8 -30.24 50.459999999999994 -32.28Q48.12 -34.32 43.8 -34.32H30.24V-18.96H43.92Q52.8 -18.96 52.8 -26.4Z" fill="#FFFFFF"/></g><g transform="translate(137.88,110.40)"><path d="M60.239999999999995 -13.799999999999999H30.24L25.68 0.0H0.96L31.799999999999997 -84.6H58.919999999999995L89.64 0.0H64.8ZM54.36 -31.799999999999997 45.239999999999995 -59.16 36.24 -31.799999999999997Z" fill="#FF7A3D"/></g><g transform="translate(230.64,110.40)"><path d="M30.24 -84.6V0.0H6.72V-84.6Z" fill="#FF7A3D"/></g><g transform="translate(298.56,110.40)"><path d="M4.2 -26.279999999999998H29.279999999999998Q29.64 -21.84 31.919999999999998 -19.799999999999997Q34.199999999999996 -17.759999999999998 37.8 -17.759999999999998Q41.04 -17.759999999999998 43.14 -19.38Q45.239999999999995 -21.0 45.239999999999995 -23.88Q45.239999999999995 -27.599999999999998 41.76 -29.64Q38.28 -31.68 30.48 -34.199999999999996Q22.2 -36.96 17.1 -39.54Q12.0 -42.12 8.219999999999999 -47.099999999999994Q4.4399999999999995 -52.08 4.4399999999999995 -60.12Q4.4399999999999995 -68.28 8.52 -74.1Q12.6 -79.92 19.8 -82.92Q27.0 -85.92 36.12 -85.92Q50.879999999999995 -85.92 59.699999999999996 -79.02Q68.52 -72.11999999999999 69.12 -59.64H43.559999999999995Q43.44 -63.48 41.22 -65.39999999999999Q39.0 -67.32 35.519999999999996 -67.32Q32.879999999999995 -67.32 31.199999999999996 -65.75999999999999Q29.52 -64.2 29.52 -61.32Q29.52 -58.919999999999995 31.380000000000003 -57.17999999999999Q33.24 -55.44 36.0 -54.17999999999999Q38.76 -52.919999999999995 44.16 -51.0Q52.199999999999996 -48.239999999999995 57.42 -45.53999999999999Q62.64 -42.839999999999996 66.42 -37.98Q70.2 -33.12 70.2 -25.68Q70.2 -18.12 66.42 -12.120000000000001Q62.64 -6.12 55.5 -2.64Q48.36 0.84 38.64 0.84Q23.88 0.84 14.399999999999999 -6.18Q4.92 -13.2 4.2 -26.279999999999998Z" fill="#FFFFFF"/></g><g transform="translate(375.12,110.40)"><path d="M82.44 -84.6V0.0H58.919999999999995V-33.96H30.24V0.0H6.72V-84.6H30.24V-52.8H58.919999999999995V-84.6Z" fill="#FFFFFF"/></g><g transform="translate(466.44,110.40)"><path d="M30.24 -84.6V0.0H6.72V-84.6Z" fill="#FFFFFF"/></g><g transform="translate(505.56,110.40)"><path d="M64.08 -84.6V-65.88H30.24V-51.0H55.199999999999996V-33.12H30.24V0.0H6.72V-84.6Z" fill="#FFFFFF"/></g><g transform="translate(575.04,110.40)"><path d="M70.44 -84.6V-65.88H47.879999999999995V0.0H24.36V-65.88H2.04V-84.6Z" fill="#FFFFFF"/></g><g transform="translate(671.5,26.4) scale(0.8077)"><path d="M11 45 L51 7 L91 45" fill="none" stroke="#FF7A3D" stroke-width="12.5" stroke-linecap="round" stroke-linejoin="round"/><path d="M37 97 L6 97 L51 55 L96 97 L65 97" fill="none" stroke="#FF7A3D" stroke-width="12.5" stroke-linejoin="round" stroke-linecap="butt"/></g></g></svg>